<?xml version="1.0" standalone="no"?>
<!DOCTYPE svg PUBLIC "-//W3C//DTD SVG 20010904//EN"
 "http://www.w3.org/TR/2001/REC-SVG-20010904/DTD/svg10.dtd">
<svg version="1.0" xmlns="http://www.w3.org/2000/svg"
 width="126.000000pt" height="126.000000pt" viewBox="0 0 126.000000 126.000000"
 preserveAspectRatio="xMidYMid meet">
<metadata>
Created by potrace 1.11, written by Peter Selinger 2001-2013
</metadata>
<g transform="translate(0.000000,126.000000) scale(0.100000,-0.100000)"
fill="#000000" stroke="none">
<path d="M820 1133 c-8 -4 -66 -46 -129 -95 -62 -48 -119 -88 -127 -88 -7 0
-23 4 -36 9 -38 16 -211 69 -241 75 -34 6 -67 -23 -67 -59 0 -22 15 -71 40
-130 5 -11 20 -53 34 -92 l25 -73 -89 -126 c-50 -69 -90 -134 -90 -143 0 -9 7
-27 16 -40 16 -23 18 -23 175 -19 183 5 156 18 257 -122 80 -112 98 -130 127
-130 40 0 56 29 99 181 l41 142 145 49 c80 26 151 56 158 65 29 40 16 65 -68
123 -44 30 -104 72 -134 92 l-54 38 0 122 c0 175 -1 182 -14 200 -15 19 -47
29 -68 21z m-25 -421 c6 -5 45 -33 89 -62 43 -28 74 -55 70 -60 -5 -4 -47 -20
-94 -35 -47 -15 -92 -35 -100 -44 -8 -9 -26 -59 -40 -109 -13 -51 -28 -92 -32
-92 -4 0 -33 36 -64 80 -32 44 -67 83 -78 86 -19 7 -87 6 -178 0 -21 -2 -38
-1 -38 1 0 3 27 43 60 90 33 48 60 94 60 103 0 9 -14 53 -30 98 -17 46 -30 88
-30 95 0 10 28 4 97 -18 53 -18 104 -30 113 -28 9 2 52 32 96 67 l79 63 5
-113 c3 -62 10 -117 15 -122z"/>
</g>
</svg>
